<svg  t="1573288784950" class="icon" viewBox="0 0 1024 1024" version="1.1" xmlns="http://www.w3.org/2000/svg" p-id="5306" width="200" height="200"><path d="M512 39.384615C252.061538 39.384615 39.384615 252.061538 39.384615 512s212.676923 472.615385 472.615385 472.615385 472.615385-212.676923 472.615385-472.615385S771.938462 39.384615 512 39.384615z m234.338462 506.092308c-1.969231 13.784615-13.784615 25.6-29.538462 25.6H307.2c-15.753846 0-27.569231-9.846154-29.538462-25.6-1.969231-23.630769-1.969231-45.292308 0-66.953846 1.969231-13.784615 13.784615-25.6 29.538462-25.6h409.6c15.753846 0 27.569231 11.815385 29.538462 25.6 1.969231 23.630769 1.969231 45.292308 0 66.953846z" p-id="5307"></path></svg>
