<svg  t="1573398313045" class="icon" viewBox="0 0 1024 1024" version="1.1" xmlns="http://www.w3.org/2000/svg" p-id="19307" width="200" height="200"><path d="M461.216 557.8112l-85.3824-85.3824a38.4 38.4 0 0 0-54.2976 0l-9.4848 9.4848a38.4 38.4 0 0 0 0 54.3168l117.0048 117.0048c8.7744 8.7744 20.736 12.4224 32.160000000000004 10.9248a38.342400000000005 38.342400000000005 0 0 0 32.1792-10.944l219.7824-219.7824a38.4 38.4 0 0 0 0-54.2976l-9.4848-9.4848a38.4 38.4 0 0 0-54.2976 0l-188.16 188.16zM512 992C246.9056 992 32 777.0944000000001 32 512S246.9056 32 512 32s480 214.9056 480 480-214.9056 480-480 480z" p-id="19308"></path></svg>
