<svg width="17" height="17" t="1573288818494" class="icon" viewBox="0 0 1024 1024" version="1.1" xmlns="http://www.w3.org/2000/svg" p-id="2645" width="200" height="200"><path d="M511.95733 0C229.651138 0 0.853404 228.797733 0.853404 511.103925s228.797733 511.103925 511.103925 511.103925c282.306192 0 511.103925-228.797733 511.103925-511.103925S794.263522 0 511.95733 0zM802.370864 403.318943 499.326944 704.912076c-13.48379 13.39845-35.416285 13.39845-48.900075 0l-215.057921-214.033836c-13.48379-13.39845-13.48379-35.245604 0-48.644054l9.814151-9.728811c13.48379-13.39845 35.416285-13.39845 48.900075 0l180.836403 179.982999 268.822402-267.542295c13.48379-13.39845 35.416285-13.39845 48.900075 0l9.814151 9.728811C815.854655 368.15868 815.854655 389.920493 802.370864 403.318943z" p-id="2646"></path></svg>
