<svg width="20" height="20" t="1573288887175" class="icon" viewBox="0 0 1024 1024" version="1.1" xmlns="http://www.w3.org/2000/svg" p-id="5300" width="200" height="200"><path d="M988.8 822.4l-416-729.6c-12.8-22.4-35.2-38.4-60.8-38.4-25.6 0-48 12.8-60.8 38.4l-416 729.6c-12.8 22.4-12.8 48-3.2 70.4 12.8 19.2 35.2 32 60.8 32h832c25.6 0 48-12.8 60.8-32 16-22.4 16-48 3.2-70.4zM508.8 288c32 0 57.6 25.6 57.6 57.6v208c0 32-25.6 57.6-57.6 57.6s-57.6-25.6-57.6-57.6v-208c0-32 25.6-57.6 57.6-57.6z m3.2 387.2c32 0 57.6 25.6 57.6 57.6s-25.6 57.6-57.6 57.6-57.6-25.6-57.6-57.6 25.6-57.6 57.6-57.6z" p-id="5301"></path></svg>
